<svg id="Layer_1" enable-background="new 0 0 512 512" height="512" viewBox="0 0 512 512" width="512" xmlns="http://www.w3.org/2000/svg"><g><path d="m485.028 141.502c-1.855-3.704-6.363-5.201-10.064-3.348-3.704 1.855-5.202 6.361-3.348 10.065 16.844 33.627 25.384 69.889 25.384 107.781 0 64.374-25.068 124.895-70.587 170.413s-106.039 70.587-170.413 70.587-124.894-25.068-170.413-70.587-70.587-106.039-70.587-170.413 25.068-124.894 70.587-170.413 106.039-70.587 170.413-70.587c80.597 0 155.519 40.041 200.417 107.109 2.304 3.442 6.962 4.365 10.404 2.061s4.365-6.963 2.061-10.404c-47.688-71.237-127.27-113.766-212.882-113.766-68.38 0-132.667 26.629-181.02 74.98-48.351 48.352-74.98 112.64-74.98 181.02s26.629 132.668 74.98 181.02c48.353 48.351 112.64 74.98 181.02 74.98s132.668-26.629 181.02-74.98 74.98-112.64 74.98-181.02c0-40.245-9.074-78.768-26.972-114.498z"/><path d="m55.99 322.554c-1.308-3.929-5.556-6.055-9.485-4.747-3.93 1.309-6.056 5.555-4.748 9.485 9.441 28.362 24.236 54.225 43.975 76.867 1.365 1.566 3.32 2.496 5.397 2.566.085.003.171.005.257.005 1.985 0 3.894-.788 5.303-2.196l307.677-307.677c1.469-1.47 2.263-3.483 2.191-5.561-.07-2.077-1-4.031-2.566-5.396-41.038-35.773-93.655-55.475-148.159-55.475-60.253 0-116.899 23.464-159.505 66.069-42.605 42.607-66.069 99.253-66.069 159.506 0 12.987 1.113 26.009 3.309 38.7.706 4.082 4.585 6.814 8.668 6.112 4.082-.706 6.818-4.587 6.112-8.669-2.05-11.85-3.089-24.011-3.089-36.144 0-116.111 94.463-210.574 210.574-210.574 48.19 0 94.8 16.497 132.139 46.613l-20.011 20.012c-4.506-3.004-9.835-4.646-15.395-4.646-15.324 0-27.791 12.469-27.791 27.796 0 5.56 1.641 10.887 4.643 15.393l-29.505 29.505v-5.163c0-11.69-7.484-21.665-17.912-25.384 2.537-4.192 3.998-9.104 3.998-14.351 0-15.327-12.467-27.796-27.792-27.796s-27.792 12.469-27.792 27.796c0 5.247 1.461 10.159 3.998 14.351-10.428 3.719-17.912 13.694-17.912 25.384v16.052c0 2.929 1.705 5.59 4.366 6.813l11.628 5.349v44.364l-45.285 45.285c-.487-14.903-12.76-26.875-27.776-26.875-15.325 0-27.792 12.469-27.792 27.796 0 5.247 1.462 10.16 3.998 14.351-10.428 3.719-17.912 13.694-17.912 25.384v16.052c0 2.929 1.705 5.59 4.366 6.813l1.092.502-31.32 31.32c-15.855-19.627-27.908-41.654-35.875-65.587zm283.783-187.354c0-7.056 5.738-12.796 12.791-12.796 1.487 0 2.938.256 4.3.741l-16.352 16.352c-.484-1.361-.739-2.811-.739-4.297zm-81.566-12.796c7.053 0 12.792 5.74 12.792 12.796s-5.738 12.796-12.792 12.796-12.792-5.74-12.792-12.796 5.738-12.796 12.792-12.796zm-15.077 69.126-11.628-5.349v-11.246c0-6.583 5.354-11.939 11.936-11.939h29.539c6.582 0 11.936 5.356 11.936 11.939v20.163l-37.416 37.416v-34.17c-.001-2.929-1.706-5.59-4.367-6.814zm-83.694 89.393c7.053 0 12.792 5.74 12.792 12.796s-5.738 12.796-12.792 12.796-12.792-5.74-12.792-12.796 5.738-12.796 12.792-12.796zm-26.706 63.777v-11.246c0-6.583 5.354-11.939 11.936-11.939h13.829l-23.998 23.998z"/><path d="m107.673 426.1c41.038 35.773 93.655 55.475 148.159 55.475 60.253 0 116.899-23.464 159.505-66.069s66.069-99.253 66.069-159.506c0-54.504-19.701-107.121-55.475-148.159-1.365-1.566-3.319-2.496-5.396-2.566-2.091-.063-4.091.723-5.561 2.191l-307.676 307.677c-1.47 1.47-2.264 3.483-2.192 5.561s1.001 4.03 2.567 5.396zm271.597-251.164v11.246l-11.628 5.349c-2.661 1.224-4.366 3.885-4.366 6.813v36.61h-21.421v-33.154l34.579-34.579c1.792 2.124 2.836 4.851 2.836 7.715zm-136.14 175.113-11.628-5.349v-11.246c0-6.583 5.354-11.939 11.936-11.939h29.539c6.582 0 11.936 5.356 11.936 11.939v11.246l-11.628 5.349c-2.661 1.224-4.366 3.885-4.366 6.813v36.61h-21.421v-36.61c-.002-2.928-1.707-5.59-4.368-6.813zm27.868-56.33c0 7.056-5.738 12.796-12.792 12.796-5.649 0-10.52-3.718-12.182-8.885l16.096-16.096c5.163 1.664 8.878 6.536 8.878 12.185zm-100.852 79.789v19.965h-19.965zm-34.965 34.965h42.465c4.142 0 7.5-3.357 7.5-7.5v-39.305l11.628-5.349c2.661-1.224 4.366-3.885 4.366-6.813v-6.992l16.369-16.369c-.656 2.325-1.008 4.777-1.008 7.309v16.052c0 2.929 1.705 5.59 4.366 6.813l11.628 5.349v39.305c0 4.143 3.358 7.5 7.5 7.5h36.421c4.142 0 7.5-3.357 7.5-7.5v-39.305l11.628-5.349c2.661-1.224 4.366-3.885 4.366-6.813v-16.052c0-11.69-7.484-21.665-17.912-25.384 2.537-4.192 3.998-9.104 3.998-14.351 0-9.706-5.055-18.357-12.725-23.338l53.581-53.581v25.655c0 4.143 3.357 7.5 7.5 7.5h36.421c4.143 0 7.5-3.357 7.5-7.5v-39.305l11.628-5.349c2.661-1.224 4.366-3.885 4.366-6.813v-16.052c0-6.885-2.675-13.42-7.22-18.331l32.743-32.743c30.119 37.338 46.616 83.948 46.616 132.138 0 116.111-94.463 210.574-210.574 210.574-48.19 0-94.799-16.497-132.139-46.613z"/><path d="m117.73 174.936v16.052c0 2.929 1.705 5.59 4.366 6.813l11.628 5.349v39.305c0 4.143 3.358 7.5 7.5 7.5h36.421c4.142 0 7.5-3.357 7.5-7.5v-39.305l11.628-5.349c2.661-1.224 4.366-3.885 4.366-6.813v-16.052c0-11.69-7.484-21.665-17.911-25.384 2.537-4.192 3.998-9.104 3.998-14.351 0-15.327-12.467-27.796-27.792-27.796s-27.792 12.469-27.792 27.796c0 5.247 1.462 10.16 3.998 14.351-10.426 3.719-17.91 13.693-17.91 25.384zm41.706-52.532c7.053 0 12.792 5.74 12.792 12.796s-5.738 12.796-12.792 12.796-12.792-5.74-12.792-12.796 5.738-12.796 12.792-12.796zm-26.706 52.532c0-6.583 5.354-11.939 11.936-11.939h29.539c6.581 0 11.936 5.356 11.936 11.939v11.246l-11.628 5.349c-2.661 1.224-4.366 3.885-4.366 6.813v36.61h-21.421v-36.61c0-2.929-1.705-5.59-4.366-6.813l-11.628-5.349v-11.246z"/><path d="m315.226 356.319 11.629 5.349v39.305c0 4.143 3.357 7.5 7.5 7.5h36.421c4.143 0 7.5-3.357 7.5-7.5v-39.305l11.628-5.349c2.661-1.224 4.366-3.885 4.366-6.813v-16.052c0-11.69-7.484-21.665-17.912-25.384 2.537-4.192 3.999-9.104 3.999-14.351 0-15.327-12.468-27.796-27.792-27.796s-27.791 12.469-27.791 27.796c0 5.247 1.461 10.16 3.998 14.351-10.428 3.719-17.912 13.694-17.912 25.384v16.052c-.001 2.929 1.704 5.59 4.366 6.813zm37.338-75.396c7.054 0 12.792 5.74 12.792 12.796s-5.738 12.796-12.792 12.796c-7.053 0-12.791-5.74-12.791-12.796s5.739-12.796 12.791-12.796zm-26.705 52.531c0-6.583 5.354-11.939 11.937-11.939h29.538c6.581 0 11.936 5.356 11.936 11.939v11.246l-11.628 5.349c-2.661 1.224-4.366 3.885-4.366 6.813v36.61h-21.421v-36.61c0-2.929-1.705-5.59-4.366-6.813l-11.629-5.349v-11.246z"/></g></svg>