<svg id="Layer_1" enable-background="new 0 0 512 512" height="512" viewBox="0 0 512 512" width="512" xmlns="http://www.w3.org/2000/svg"><g><path d="m504.5 132.016h-20.802v-32.297c0-15.151-12.332-27.479-27.489-27.479-4.494 0-8.74 1.084-12.489 3.003v-.525c0-12.395-10.087-22.479-22.486-22.479s-22.486 10.084-22.486 22.479v57.297h-44.385c-3.214-16.807-18.029-29.549-35.765-29.549h-4.7c-.106-13.803-11.367-25-25.195-25h-.071c-6.89 0-13.143 2.78-17.696 7.278-4.553-4.497-10.806-7.278-17.696-7.278h-.071c-6.89 0-13.143 2.78-17.696 7.278-4.553-4.497-10.806-7.278-17.696-7.278h-.071c-6.89 0-13.143 2.78-17.696 7.278-4.553-4.497-10.806-7.278-17.696-7.278h-.072c-13.893 0-25.196 11.303-25.196 25.196v29.353h-43.791v-57.296c0-12.395-10.087-22.479-22.486-22.479s-22.489 10.084-22.489 22.479v.525c-3.75-1.92-7.995-3.003-12.489-3.003-15.158 0-27.489 12.327-27.489 27.479v32.297h-20.802c-4.142 0-7.5 3.357-7.5 7.5v50c0 4.143 3.358 7.5 7.5 7.5h20.802v32.297c0 15.151 12.332 27.479 27.489 27.479 4.494 0 8.74-1.084 12.489-3.003v.525c0 12.395 10.087 22.479 22.486 22.479s22.486-10.084 22.486-22.479v-57.297h43.791v14.121c0 2.324 1.078 4.518 2.917 5.938l37.692 29.092-10.894 114.066h-16.264c-3.801 0-7.001 2.844-7.448 6.618l-10.005 84.527c-.252 2.128.418 4.262 1.841 5.863 1.423 1.603 3.464 2.519 5.606 2.519h119.708c4.142 0 7.5-3.357 7.5-7.5s-3.358-7.5-7.5-7.5h-111.266l8.23-69.527h157.68l8.23 69.527h-28.38c-4.142 0-7.5 3.357-7.5 7.5s3.358 7.5 7.5 7.5h36.82c2.143 0 4.183-.916 5.606-2.519 1.423-1.602 2.093-3.735 1.841-5.863l-10.005-84.527c-.447-3.774-3.646-6.618-7.448-6.618h-16.264l-11.007-115.241 36.963-47.976h47.55v57.297c0 12.395 10.087 22.479 22.486 22.479s22.486-10.084 22.486-22.479v-.525c3.75 1.92 7.995 3.003 12.489 3.003 15.157 0 27.489-12.327 27.489-27.479v-32.297h20.804c4.142 0 7.5-3.357 7.5-7.5v-50c0-4.144-3.358-7.501-7.5-7.501zm-215.869-39.549h.071c5.622 0 10.196 4.574 10.196 10.196v39.156c0 5.622-4.574 10.196-10.268 10.196-5.622 0-10.196-4.574-10.196-10.196v-39.156c.001-5.622 4.575-10.196 10.197-10.196zm-35.464 0h.071c5.622 0 10.196 4.574 10.196 10.196v39.156c0 5.622-4.574 10.196-10.267 10.196-5.622 0-10.196-4.574-10.196-10.196v-39.156c0-5.622 4.574-10.196 10.196-10.196zm-35.463 0h.071c5.622 0 10.196 4.574 10.196 10.196v39.156c0 5.622-4.574 10.196-10.268 10.196-5.622 0-10.196-4.574-10.196-10.196v-39.156c0-5.622 4.575-10.196 10.197-10.196zm-45.66 10.196c0-5.622 4.574-10.196 10.196-10.196h.072c5.622 0 10.196 4.574 10.196 10.196v39.156c0 5.622-4.574 10.196-10.268 10.196-5.622 0-10.196-4.574-10.196-10.196zm-157.044 79.353v-35h13.302v35zm83.253 72.297c0 4.124-3.358 7.479-7.486 7.479s-7.486-3.354-7.486-7.479v-97.618c0-4.143-3.358-7.5-7.5-7.5s-7.5 3.357-7.5 7.5v72.618c0 6.881-5.603 12.479-12.489 12.479s-12.489-5.598-12.489-12.479v-129.594c0-6.881 5.603-12.479 12.489-12.479s12.488 5.598 12.488 12.479v22.617c0 4.143 3.358 7.5 7.5 7.5s7.5-3.357 7.5-7.5v-47.617c0-4.124 3.358-7.479 7.486-7.479s7.486 3.354 7.486 7.479v179.594zm241.755-67.351-39.463 51.219c-1.161 1.506-1.706 3.397-1.525 5.29l11.153 116.762h-108.346l11.152-116.762c.245-2.564-.844-5.076-2.883-6.65l-38.052-29.369v-10.436h28.49c4.142 0 7.5-3.357 7.5-7.5s-3.358-7.5-7.5-7.5h-87.281v-35h44.33c2.402 11.409 12.553 20 24.728 20 6.892 0 13.147-2.782 17.701-7.282 4.563 4.5 10.835 7.282 17.763 7.282 6.892 0 13.147-2.782 17.701-7.282 4.563 4.5 10.835 7.282 17.763 7.282 6.892 0 13.147-2.782 17.701-7.282 4.563 4.5 10.835 7.282 17.763 7.282 3.426 0 6.695-.688 9.675-1.932l-11.048 16.932h-52.384c-4.142 0-7.5 3.357-7.5 7.5s3.358 7.5 7.5 7.5h56.446c2.534 0 4.896-1.279 6.281-3.401l15.008-23c.795-1.219 1.219-2.644 1.219-4.099v-49.049h4.699c11.806 0 21.411 9.599 21.411 21.396v48.099zm15-4.946v-35h43.739v35zm113.69 47.297c0 6.881-5.603 12.479-12.489 12.479-6.887 0-12.489-5.598-12.489-12.479v-23.028c0-4.143-3.358-7.5-7.5-7.5s-7.5 3.357-7.5 7.5v48.028c0 4.124-3.358 7.479-7.486 7.479s-7.486-3.354-7.486-7.479v-179.594c0-4.124 3.358-7.479 7.486-7.479s7.486 3.354 7.486 7.479v96.772c0 4.143 3.358 7.5 7.5 7.5s7.5-3.357 7.5-7.5v-71.772c0-6.881 5.603-12.479 12.489-12.479s12.489 5.598 12.489 12.479zm28.302-47.297h-13.302v-35h13.302z"/></g></svg>