<?xml version="1.0" encoding="UTF-8"?>
<svg xmlns="http://www.w3.org/2000/svg" id="Artboard_30" data-name="Artboard 30" viewBox="0 0 64 64" width="512" height="512"><path d="M29,56a1,1,0,0,0,.646-.237l12.032-10.18A3.733,3.733,0,0,0,39.268,39h-.292a3.743,3.743,0,0,0-2.364.844l-.54.442A3.746,3.746,0,0,0,33.268,39h-.292a3.743,3.743,0,0,0-2.364.844l-.658.539A3.749,3.749,0,0,0,27.062,39H26.77a3.743,3.743,0,0,0-2.364.844l-2.713,2.22-2.14-.643A10.046,10.046,0,0,0,16.679,41h-.245A10,10,0,0,0,11.4,42.362L1.5,48.136A1,1,0,0,0,1,49V62a1,1,0,0,0,1.537.844L13.291,56Zm2.878-14.608a1.74,1.74,0,0,1,1.1-.392h.292a1.727,1.727,0,0,1,1.249.558l-5.57,4.556a3.252,3.252,0,0,0-.826-1.648Zm-6.206,0A1.738,1.738,0,0,1,26.77,41h.292a1.731,1.731,0,0,1,1.342.651l-2.17,1.775L24,42.757ZM12.463,54.156,3,60.178v-10.6l9.4-5.484A8.008,8.008,0,0,1,16.434,43h.245a8.013,8.013,0,0,1,2.3.337l7.1,2.131A1.293,1.293,0,0,1,25.706,48H19v2h8a1,1,0,0,0,.633-.226l10.245-8.382a1.74,1.74,0,0,1,1.1-.392h.292a1.733,1.733,0,0,1,1.119,3.056L28.634,54H13A1,1,0,0,0,12.463,54.156Z"/><path d="M25.9,36.967a5.157,5.157,0,0,0,6.206,0,4.757,4.757,0,0,0,1.164-6.327L29.9,23.559a1,1,0,0,0-1.806,0L24.733,30.64A4.757,4.757,0,0,0,25.9,36.967Zm.546-5.287a1.124,1.124,0,0,0,.069-.122L29,26.319l2.488,5.239a1.124,1.124,0,0,0,.069.122,2.75,2.75,0,0,1-.661,3.693,3.192,3.192,0,0,1-3.792,0A2.75,2.75,0,0,1,26.443,31.68Z"/><path d="M62,1H44a5.009,5.009,0,0,0-4.9,4H36a3,3,0,0,0-3,3V9H29V7a1,1,0,0,0-1-1H22a1,1,0,0,0-1,1V22a1,1,0,0,0,1,1h1a4,4,0,0,0,4-4V18h1a1,1,0,0,0,1-1V15h4v1a3,3,0,0,0,3,3h3.1A5.009,5.009,0,0,0,44,23H62a1,1,0,0,0,1-1V2A1,1,0,0,0,62,1ZM25,19a2,2,0,0,1-2,2V18h2Zm2-3H23V8h4Zm2-3V11h4v2Zm6,3V8a1,1,0,0,1,1-1h3V17H36A1,1,0,0,1,35,16ZM56,3V21H47V3ZM41,18V6a3,3,0,0,1,3-3h1V21H44A3,3,0,0,1,41,18Zm20,3H58V3h3Z"/></svg>
