<?xml version="1.0"?>
<svg xmlns="http://www.w3.org/2000/svg" id="Oultline" viewBox="0 0 512 512" width="512" height="512"><path d="M248,136a8,8,0,0,0-8-8H192a8,8,0,0,0,0,16h48A8,8,0,0,0,248,136Z"/><path d="M320,144h48a8,8,0,0,0,0-16H320a8,8,0,0,0,0,16Z"/><path d="M304,216a8,8,0,0,0-16,0,8,8,0,0,1-16,0,8,8,0,0,0-16,0,24,24,0,0,0,48,0Z"/><path d="M400,368H367.094l45.62-28.513A23.848,23.848,0,0,0,424,319.13v-2.26a23.705,23.705,0,0,0-12.363-20.993,24.135,24.135,0,0,0-9.644-2.959A71.833,71.833,0,0,0,408,264v-8.581a55.953,55.953,0,0,0,32-94.557V104a56.108,56.108,0,0,0-32.1-50.645A40.045,40.045,0,0,0,368,16H112a8,8,0,0,0-8,8,71.806,71.806,0,0,0,23.074,52.759A55.922,55.922,0,0,0,120,104v56.862a55.953,55.953,0,0,0,32,94.557V264a72.081,72.081,0,0,0,72,72v32H182.186A71.993,71.993,0,1,0,88,451.872V488a8,8,0,0,0,8,8H464a8,8,0,0,0,8-8V440A72.081,72.081,0,0,0,400,368Zm8-51.13v2.26a7.948,7.948,0,0,1-3.76,6.786l-56.481,35.3A8,8,0,0,0,344,368V480H296V368a8,8,0,0,0-8-8,8.009,8.009,0,0,1-8-8V300.49a7.989,7.989,0,0,1,6.061-7.76l27.81-6.952c.076-.019.152-.036.227-.057l23.842-5.96A8,8,0,0,0,344,272V200a8,8,0,1,1,16,0V318a8,8,0,0,0,12.24,6.784l23.519-14.7A8,8,0,0,1,408,316.87ZM330.464,79.724A56.1,56.1,0,0,1,280.581,32h23.874A71.95,71.95,0,0,0,330.464,79.724ZM320.581,32h23.876a71.989,71.989,0,0,0,25.919,47.718A56.1,56.1,0,0,1,320.581,32ZM290.464,79.724A56.1,56.1,0,0,1,240.581,32h23.874A71.95,71.95,0,0,0,290.464,79.724Zm-40,0A56.1,56.1,0,0,1,200.581,32h23.874A71.95,71.95,0,0,0,250.464,79.724Zm-40,0A56.1,56.1,0,0,1,160.581,32h23.874A71.95,71.95,0,0,0,210.464,79.724ZM408,239.2v-78.39a40,40,0,0,1,0,78.39ZM424,104v45.414a55.52,55.52,0,0,0-16-4.833V72A40.086,40.086,0,0,1,424,104ZM392,56V74.612A55.979,55.979,0,0,1,360.581,32H368A24.027,24.027,0,0,1,392,56ZM120.57,32h23.885a71.957,71.957,0,0,0,26.006,47.722A56.111,56.111,0,0,1,120.57,32ZM152,91.872v52.709a55.52,55.52,0,0,0-16,4.833V104a39.963,39.963,0,0,1,4.092-17.634A71.706,71.706,0,0,0,152,91.872ZM120,200a40.067,40.067,0,0,1,32-39.195V239.2A40.067,40.067,0,0,1,120,200Zm48,64V95.545A72.383,72.383,0,0,0,176,96H392V264a55.456,55.456,0,0,1-16,39.181V200a23.9,23.9,0,0,0-7.033-16.987,24.187,24.187,0,0,0-5.214-3.946l7.825-3.912a8,8,0,1,0-7.156-14.31l-32,16a7.977,7.977,0,0,0-2.069,12.8A23.859,23.859,0,0,0,328,200v65.754l-9.775,2.444A40,40,0,0,0,240,280a8,8,0,0,0,16,0,24,24,0,0,1,46.661-7.911l-20.481,5.12A23.965,23.965,0,0,0,264,300.49V320H224A56.063,56.063,0,0,1,168,264Zm96,72v16a24.042,24.042,0,0,0,16,22.629V400H264a24.027,24.027,0,0,1-24-24V336ZM56,384a56,56,0,1,1,56,56A56.063,56.063,0,0,1,56,384Zm48,71.545A71.922,71.922,0,0,0,184,384h40.805A40.068,40.068,0,0,0,264,416h16v64H104ZM456,480H360V384h40a56.063,56.063,0,0,1,56,56Z"/><path d="M248,184a24,24,0,1,0-24,24A24.027,24.027,0,0,0,248,184Zm-32,0a8,8,0,1,1,8,8A8.009,8.009,0,0,1,216,184Z"/><path d="M130.343,413.657a8,8,0,1,0,11.314-11.314L123.314,384l18.343-18.343a8,8,0,1,0-11.314-11.314L112,372.686,93.657,354.343a8,8,0,0,0-11.314,11.314L100.686,384,82.343,402.343a8,8,0,0,0,11.314,11.314L112,395.314Z"/></svg>
