<svg height="512" viewBox="0 0 60 60" width="512" xmlns="http://www.w3.org/2000/svg"><g id="Page-1" fill="none" fill-rule="evenodd"><g id="024---Vitamines" fill="rgb(0,0,0)" fill-rule="nonzero" transform="translate(-1)"><path id="Shape" d="m21.188 30.5c-.3086138.9173675-.2365737 1.9201661.2 2.784l6.352 12.7c.6177631 1.2355718 1.8805989 2.0160601 3.262 2.0160601s2.6442369-.7804883 3.262-2.0160601l6.352-12.7c.5991018-1.1671974.5251025-2.566239-.1937849-3.6637242s-1.9718622-1.7242607-3.2812133-1.6413612c-1.3093512.0828995-2.473271.8626968-3.0480018 2.0420854l-3.093 6.179-3.091-6.181c-.6591118-1.3196935-2.0484884-2.1121946-3.519921-2.0077647-1.4714325.1044299-2.7349564 1.0852115-3.201079 2.4847647zm2.723-.319c.3903732-.1962699.8428468-.2289614 1.2573796-.0908464.4145327.138115.7569775.4356594.9516204.8268464l3.985 7.97c.187968.3152706.5279475.5083906.895.5083906s.707032-.19312.895-.5083906l3.985-7.971c.4177756-.7928722 1.3928352-1.1061757 2.1942616-.7050543.8014265.4011214 1.1350306 1.3694233.7507384 2.1790543l-6.352 12.7c-.2790369.5578437-.8492603.9101961-1.473.9101961s-1.1939631-.3523524-1.473-.9101961l-6.353-12.706c-.4061874-.8132406-.0762256-1.8017827.737-2.208z"/><path id="Shape" d="m19.479 21.672c.2075204-.0000957.4098709-.06475.579-.185 1.8527896-1.3230527 3.1639214-3.2721668 3.691-5.487h7.251c.5522847 0 1-.4477153 1-1s-.4477153-1-1-1h-8.08c-.4991787-.0002834-.9221134.3675972-.991.862-.2819498 2.0099317-1.3770627 3.8158375-3.029 4.995-.3548519.2522969-.5056754.7051994-.3729344 1.1198721s.5185344.6957987.9539344.6951279z"/><path id="Shape" d="m6 49c.55228475 0 1-.4477153 1-1 .00081426-2.0066194 1.00467829-3.8799985 2.675-4.992.4480292-.3111892.5640019-.9240264.2606586-1.3774046-.30334328-.4533781-.91406885-.5800008-1.3726586-.2845954-2.22511031 1.4831162-3.56206284 3.9799116-3.563 6.654 0 .5522847.44771525 1 1 1z"/><path id="Shape" d="m4.513 56.487c.013.013.03.017.043.029 2.86340699 2.8501665 6.9720377 4.0623706 10.924 3.223.4895704.1672496 1.0026802.255356 1.52.261h28c1.0598727-.0038951 2.0907331-.3465809 2.942-.978 2.7873502 1.4194695 6.1124285 1.2866108 8.7776393-.3507243 2.6652108-1.637335 4.2866644-4.5433091 4.2803607-7.6712757v-12c.0082342-2.740884-1.2367075-5.3352189-3.3800261-7.0436387-2.1433187-1.7084198-4.9499311-2.3435419-7.6199739-1.7243613v-8.072c-.0049005-2.3160963-1.4862391-4.3711418-3.682-5.108-1.3830689-.4606896-2.3165719-1.7542234-2.318-3.212v-2.024c1.1943509-.4222546 1.9947486-1.5492146 2-2.816v-6c0-1.65685425-1.3431458-3-3-3h-24c-1.6568542 0-3 1.34314575-3 3v6c.0052514 1.2667854.8056491 2.3937454 2 2.816v2.024c.0012659.7087339-.2224786 1.3995758-.639 1.973-.4159652.5787768-1.0033011 1.0121949-1.679 1.239-2.1984543.7331992-3.6814224 2.7905053-3.682 5.108v13.891c-4.64616072.383046-8.64861941 3.4255527-10.26079827 7.7998427-1.61217887 4.37429-.54150762 9.2865386 2.74479827 12.5931573.016.013.016.03.029.043zm2.163-.749 14.062-14.062c3.2566381 3.9727614 2.9703313 9.7675499-.6620594 13.3999406s-9.4271792 3.9186975-13.3999406.6620594zm45.324 2.262c-3.8641657-.0044086-6.9955914-3.1358343-7-7v-5h14v5c-.0044086 3.8641657-3.1358343 6.9955914-7 7zm7-19v5h-14v-5c.0000001-3.8659932 3.1340068-6.9999998 7-6.9999998s6.9999999 3.1340066 7 6.9999998zm-41-36c0-.55228475.4477153-1 1-1h24c.5522847 0 1 .44771525 1 1v6c0 .55228475-.4477153 1-1 1h-1v-3c0-.55228475-.4477153-1-1-1s-1 .44771525-1 1v3h-3v-3c0-.55228475-.4477153-1-1-1s-1 .44771525-1 1v3h-3v-3c0-.55228475-.4477153-1-1-1s-1 .44771525-1 1v3h-3v-3c0-.55228475-.4477153-1-1-1s-1 .44771525-1 1v3h-3v-3c0-.55228475-.4477153-1-1-1s-1 .44771525-1 1v3h-1c-.5522847 0-1-.44771525-1-1zm-1.684 15.949c2.1968989-.7362857 3.679239-2.7920065 3.684-5.109v-1.84h22v1.84c.0007445 2.3182932 1.4845994 4.3761147 3.684 5.109.67711.2277672 1.2652734.6630291 1.681 1.244.4143873.5719992.6367098 1.2606736.635 1.967v1.84h-24c-.5522847 0-1 .4477153-1 1s.4477153 1 1 1h24v4.95c-3.058791 1.5175814-4.9953479 4.6354379-5 8.05v12c.0001064 2.6042886 1.1312998 5.0801426 3.1 6.785-.3497814.1405495-.7230399.2135046-1.1.215h-25.381c2.1673838-1.4419642 3.8096159-3.5469401 4.681-6h13.7c.5522847 0 1-.4477153 1-1s-.4477153-1-1-1h-13.181c.6757998-3.8116235-.5568189-7.712675-3.3-10.444-.012-.013-.016-.03-.029-.043s-.03-.017-.043-.029c-2.0002653-1.9860838-4.6376958-3.2019155-7.447-3.433v-10.051h4c.5522847 0 1-.4477153 1-1s-.4477153-1-1-1h-4v-1.84c.0012611-1.4569782.9338774-2.7499966 2.316-3.211zm-3.316 19.051c2.3064711-.0018395 4.5419272.7977496 6.324 2.262l-14.062 14.062c-2.4482831-2.9886438-2.95426943-7.1208974-1.29941393-10.6119624 1.6548555-3.4910651 5.17398656-5.7153085 9.03741393-5.7120376z"/><path id="Shape" d="m48 40c.5522847 0 1-.4477153 1-1 0-1.6568542 1.3431458-3 3-3 .5522847 0 1-.4477153 1-1s-.4477153-1-1-1c-2.7600532.0033061-4.9966939 2.2399468-5 5 0 .5522847.4477153 1 1 1z"/></g></g></svg>